<?xml version="1.0" encoding="UTF-8"?> <svg xmlns="http://www.w3.org/2000/svg" viewBox="0 0 1530 430"><defs><style>.cls-1{fill:#623ad2;}.cls-2{fill:#de00ff;}</style></defs><g id="ART"><path d="M742.42,200.4c1.55.62,1.4,3.88-.31,4.5-6.67-.31-12.72-.46-18.93-.46-7.3,0-14,.15-20.8.46-1.24-.62-1.86-3.57-.31-4.5l4.19-.78c6.21-1.08,6.67-2.17,6.67-12.72V123.42h-.31c-4.19,8.53-6.36,13.19-9.31,19.4L690,170.13c-5.28,10.87-13,28.1-15.83,35.39-.62.62-3,.62-4,0-2.63-8.38-9.31-23.59-12.88-31.35l-13.35-29.8c-3-6.52-7.45-16.76-9.31-21.42h-.31l-1.09,26.7c-.31,9.46-.93,23.28-.93,36,0,10.24.16,12.57,6.83,13.81l5.12.93c1.09.93,1.09,3.88-.15,4.5-5.74-.31-10.56-.46-16.3-.46-5,0-10.24.15-16.3.46-1.39-.77-1.39-3.72-.46-4.5l2.64-.31c7.45-.93,8.69-3.26,9.77-12.73,1.09-9.78,1.87-19.86,2.64-36,.62-10.55,1.56-23.43,1.56-32.9,0-7.3-2.33-10.4-8.39-11.49l-5.27-.93c-.93-1.08-.78-4,.62-4.5,4.65.31,8.84.47,14.59.47,5.43,0,10.86,0,16.61-.47.62,9.31,4.5,17.38,8.53,25.77l16.61,35.85c1.24,2.64,5.43,11.49,7.45,15.06,2.48-4.51,5.12-9.94,8.69-17.23l14.44-29.8c5-10.25,9.93-19.41,12.57-29.65,4.19.31,8.69.47,12.11.47,6.51,0,12-.16,16.29-.47,1.71.62,2,3.57.47,4.5l-5.12.78c-6.83,1.08-8.38,3.57-8.38,11.79,0,23,.31,46,1.39,68.92.47,10.4,2.17,11.33,7.14,12.1Z"></path><path d="M799.22,184.72c-.46,9,1.87,13.66,7.46,13.66,2.63,0,4.81-1.7,5.27-1.7.78,0,1.86,1.7,1.4,3.1-3.11,4.35-10.71,6.83-15.52,6.83-3.88,0-8.23-1.09-11.18-4.35-1.08-1.08-1.7-1.86-2.48-1.86s-1.86.78-4.19,2.17a25,25,0,0,1-13.19,4c-10.56,0-15.84-7.3-15.84-15.06,0-5.58,2.18-10.71,12.89-14.43,5.43-1.86,11.33-4,17.07-6.21,3.1-1.09,3.57-2.48,3.57-4l.16-4c.31-7.92-1.87-14.75-9.47-14.75-4.35,0-7.61,2.33-8.23,6.83-.31,3-1.24,4.5-3,5.59a21.31,21.31,0,0,1-9.93,2.8c-2,0-2.95-1.09-2.95-2.49,0-1.86.93-5.12,6-9.93,4.81-4.5,16-9.78,23.91-9.78,12.26,0,19.86,5.74,19.24,19.4ZM784,179.45c0-1.71-.46-2.64-1.24-2.64a25.22,25.22,0,0,0-6.83,1.86c-4.34,1.55-8.38,3.73-8.38,10.4,0,4,2.8,9,8.69,9,5.59,0,7.3-3.72,7.45-7.45Z"></path><path d="M837.87,145.92c0,1.86.31,2.64,1.4,2.64,5.43-4,12.1-7.45,19.86-7.45,13.35,0,19.87,8.54,19.87,21.73V186c0,11.48.62,13.34,5.9,14l3.57.46c1.4,1.09,1.24,3.88-.31,4.5-6.52-.31-11.8-.46-17.54-.46q-7.68,0-15.83.46c-1.24-.62-1.4-3.41-.31-4.5l2.33-.31c5.27-.78,5.89-2.64,5.89-14.12V164.08c0-7.45-3.25-13.66-12.41-13.66a14.38,14.38,0,0,0-10.56,4.5c-1.7,1.87-1.86,4.19-1.86,10.25V186c0,11.48.62,13.34,5.9,14.12l2.33.31c1.08,1.09.93,3.88-.31,4.5-5.44-.31-10.71-.46-16.46-.46-5,0-10.24.15-16.76.46-1.24-.62-1.4-3.41-.31-4.5l3.42-.46c5.27-.78,5.89-2.49,5.89-14V119.38c0-10.4-.31-11.33-3.57-13.5l-2.17-1.4c-.93-.62-1.09-3.1,0-3.57,6-1.71,14-5,20.33-7.45a2.09,2.09,0,0,1,2.18,1.24c-.31,6.21-.47,15.83-.47,22.51Z"></path><path d="M902.74,163.15c0-7,0-8.85-3.88-11.18L897,150.89a4.17,4.17,0,0,1,.16-3.57,101,101,0,0,0,20.17-8.38,2.16,2.16,0,0,1,2,1.24,70,70,0,0,0-.31,7.14c0,1.08.47,1.4,1.4,1.55,7.6-4,11.64-7.76,22.19-7.76a17.86,17.86,0,0,1,14,6.52c.93,1.4,1.87,2.33,2.49,2.33s1.55-.47,3.41-1.56c7.3-4.5,12.57-7.29,19.87-7.29,13,0,18.93,8.69,18.93,20.8V186c0,11.48.63,13.19,5.9,14l3.42.46c1.39,1.09.62,3.88,0,4.5-6.68-.31-12-.46-17.7-.46-5.12,0-10.4.15-16,.46-1.25-.62-1.4-3.41-.31-4.5l2.48-.46c5.28-.94,5.9-2.49,5.9-14V164.86c0-8.23-2.8-14.44-12.58-14.44A14,14,0,0,0,962,155.08c-1.56,1.86-1.87,3.72-1.87,8.07V186c0,11.48.62,13.34,5.9,14.12l2.33.31c1.09,1.09.93,3.88-.31,4.5-5.43-.31-10.56-.46-16.3-.46-5.12,0-10.4.15-15.52.46-1.24-.62-1.4-3.41-.31-4.5l2-.31c5.27-.78,5.9-2.64,5.9-14.12V164.86c0-8.23-2.8-14.44-11.8-14.44-5.28,0-9.31,2.49-11,4.81-1.86,2.49-2,3.88-2,9.94V186c0,11.48.62,13.34,5.9,14.12l2.33.31c1.08,1.09.93,3.88-.31,4.5-5.43-.31-10.71-.46-16.46-.46-5.12,0-10.24.15-16.14.46-1.24-.62-1.39-3.41-.31-4.5l2.8-.46c5.27-.94,5.89-2.49,5.89-14Z"></path><path d="M1082.94,173.08c0,22-15.52,33.53-34,33.53-17.85,0-32.75-11.33-32.75-31.66,0-20.8,15.83-33.84,34-33.84C1067.73,141.11,1082.94,152.91,1082.94,173.08Zm-32.13,27.32c10.71,0,13.82-12.73,13.82-24.68,0-13-4.51-28.4-16-28.4-7.92,0-14.13,8.07-14.13,25.3C1034.51,186.74,1039.64,200.4,1050.81,200.4Z"></path><path d="M1157.75,173.08c0,22-15.52,33.53-34,33.53-17.85,0-32.75-11.33-32.75-31.66,0-20.8,15.83-33.84,34-33.84C1142.54,141.11,1157.75,152.91,1157.75,173.08Zm-32.13,27.32c10.71,0,13.81-12.73,13.81-24.68,0-13-4.5-28.4-16-28.4-7.92,0-14.13,8.07-14.13,25.3C1109.32,186.74,1114.44,200.4,1125.62,200.4Z"></path><path d="M1229.3,179.14c0,14.12,1.08,18.93,3.72,18.93a19,19,0,0,0,6.52-1.39c1.24.93,1.55,4.65-.15,5.58-7.92.78-18.94,3.42-24.53,5.9a2.54,2.54,0,0,1-1.86-1.71l.31-2.32a8.88,8.88,0,0,0-.15-4.35l-.78-.16c-4.66,3.42-10.4,7-17.85,7-17.69,0-28.71-14.28-28.71-29.8,0-22.35,17.84-35.7,37.25-35.7a31.32,31.32,0,0,1,9,1.09c.62-.16.93-.78.93-2.49V119.38c0-10.4-.31-11.33-3.57-13.5l-2.17-1.4c-.93-.62-1.09-3.1,0-3.57,6-1.71,14.12-5,20.33-7.45a2.08,2.08,0,0,1,2.17,1.24c-.31,6.21-.46,15.83-.46,22.51ZM1213,160.05c0-3.11-.47-5.28-2-7.45a12.53,12.53,0,0,0-10.4-5.28c-10.55,0-17.23,10.4-17.23,23.44,0,16,8.39,26.54,19.41,26.54,3.72,0,7.91-2,9.15-3.42.78-.77,1.09-2.17,1.09-4.34Z"></path><path d="M1312,178.83c0,7.76.31,13.34,2.64,16,1.86,2.18,4.34,3.42,16.76,3.42,17.23,0,19.71-.78,26.85-16.77,1.55-.77,4-.31,4.81.94-1.24,6.51-4.65,18.31-6.52,22.5-6.52-.31-19.86-.46-37.25-.46h-16.14c-7.92,0-15.68.15-22.19.46-1.25-.62-1.71-3.72-.32-4.5l4.66-.78c7.3-1.24,8.69-1.39,8.69-17.53V124.35c0-16.15-1.39-16.61-8.69-17.7L1281,106c-1.09-.77-1.09-3.88.31-4.5,7.76.31,14.74.47,21.88.47,6.83,0,13.81-.16,20.64-.47,1.4.62,1.56,3.73.31,4.5l-3.41.62c-7.3,1.24-8.69,1.55-8.69,17.7Z"></path><path d="M1414.14,184.72c-.46,9,1.87,13.66,7.45,13.66,2.64,0,4.82-1.7,5.28-1.7.78,0,1.86,1.7,1.4,3.1-3.11,4.35-10.71,6.83-15.52,6.83-3.88,0-8.23-1.09-11.18-4.35-1.08-1.08-1.71-1.86-2.48-1.86s-1.86.78-4.19,2.17a25,25,0,0,1-13.2,4c-10.55,0-15.83-7.3-15.83-15.06,0-5.58,2.18-10.71,12.89-14.43,5.43-1.86,11.33-4,17.07-6.21,3.1-1.09,3.57-2.48,3.57-4l.15-4c.31-7.92-1.86-14.75-9.46-14.75-4.35,0-7.61,2.33-8.23,6.83-.31,3-1.24,4.5-2.95,5.59a21.31,21.31,0,0,1-9.93,2.8c-2,0-3-1.09-3-2.49,0-1.86.93-5.12,6-9.93,4.81-4.5,16-9.78,23.9-9.78,12.27,0,19.87,5.74,19.25,19.4Zm-15.21-5.27c0-1.71-.46-2.64-1.24-2.64a25.22,25.22,0,0,0-6.83,1.86c-4.34,1.55-8.38,3.73-8.38,10.4,0,4,2.79,9,8.69,9,5.59,0,7.3-3.72,7.45-7.45Z"></path><path d="M1451.7,143.28c0,2.18.31,2.8,1.25,2.8,5-3,10.08-5,16.29-5,18.16,0,29.65,13.5,29.65,30.73,0,22-16.45,34.77-36.79,34.77-11.48,0-18.78-4.19-20.64-4.19s-3,1.4-3.88,2.48a2.24,2.24,0,0,1-1.09.16c-.62,0-1.55-.62-1.55-1.09,0-.62.47-8.85.47-14.59v-70c0-10.4-.31-11.33-3.57-13.5l-2.18-1.4c-.93-.62-1.08-3.1,0-3.57,5.9-1.71,14-5,20.34-7.45a2.08,2.08,0,0,1,2.17,1.24c-.31,6.21-.47,15.83-.47,22.51Zm0,36.32c0,6.83.93,12.26,3.42,15.52a13,13,0,0,0,10.4,5.28c10.4,0,16.14-9.78,16.14-23,0-18.16-9.62-27.94-20.64-27.94a14.92,14.92,0,0,0-7.61,2c-1.4.93-1.71,3-1.71,8.23Z"></path><path d="M628.13,285c-2.42,0-2.33,0-3.16,2.52l-3.73,11.17c-1.86,5.5-.65,5.68,2.8,6.24l2.7.47c.65.65.55,2.33-.19,2.7-3-.19-6.52-.19-10.34-.28-3.07,0-6,.09-9.22.28a2.09,2.09,0,0,1-.09-2.7l2.79-.47c2.7-.46,3.73-1.21,5.13-4.28,1.11-2.42,2.6-6.33,4.56-11.36l12.76-33.16c1.11-3,2.05-5.21,1.77-6.79,3.26-.65,6.33-4.47,6.52-4.47a1.87,1.87,0,0,1,1.58.74c1.49,4.19,2.7,8.57,4.19,12.76l13.41,39c2.14,6.24,2.61,6.8,7.36,7.73l1.39.28a2,2,0,0,1,.1,2.7c-3.82-.19-7.27-.28-12.11-.28-4,0-8.1.18-11.36.28a2.12,2.12,0,0,1-.28-2.7l2-.28c3.35-.47,3.82-1,2.42-4.94l-4.38-12.66C644,285,643.59,285,641,285Zm11.64-4.19c2.61,0,3-.18,2.24-2.42l-3.91-11.17c-1.68-4.94-2.24-7.08-2.7-7.73h-.19c-.37.65-1.3,3.35-2.89,7.73l-4.19,10.89c-.93,2.7-.74,2.7,1.49,2.7Z"></path><path d="M689.5,294.38c0,9.87.84,10.15,5.22,10.71l2,.28c.66.65.56,2.33-.18,2.7-4.1-.19-8.29-.28-12.39-.28s-8.47.09-12.57.28c-.74-.37-.84-2.05-.19-2.7l2.05-.28c4.38-.56,5.22-.84,5.22-10.71V259.74c0-9.87-.84-10.15-5.22-10.71l-2.05-.28c-.65-.65-.55-2.33.19-2.7q6.15.27,12.57.28c4.1,0,8.29-.1,12.39-.28.74.37.84,2,.18,2.7l-2,.28c-4.38.56-5.22.84-5.22,10.71Z"></path><path d="M743.33,275.47c-2,0-2,.19-2,2.89v18.35c0,6.89.37,7.91,3.63,8.29l3.63.37c.66.65.56,2.33-.18,2.7-4.19-.19-7.83-.28-12.2-.28-3.08,0-6.24.09-10.06.28-.74-.37-.84-2.05-.19-2.7l2-.28c3.17-.47,3.54-1.49,3.54-8.38V278.27c0-2.52-.09-2.8-1.67-2.8h-3.36a1.37,1.37,0,0,1-.28-2.14l4-2.05a2.23,2.23,0,0,0,1.3-2v-1.68a41.43,41.43,0,0,1,2-13.32c2.42-7.35,8.66-13,17.41-13,6.43,0,10.62,2.89,10.62,6.8a4.61,4.61,0,0,1-4.57,4.47,3.08,3.08,0,0,1-2.7-1.3c-3-4.28-5-6.15-7.26-6.15-3.17,0-5.68,6.34-5.68,20.3v2.8c0,2.79.09,3,2,3h9.78a1.85,1.85,0,0,1,.56,1.49,3.05,3.05,0,0,1-1.31,2.88Z"></path><path d="M794.36,289c0,13.22-9.32,20.11-20.4,20.11-10.71,0-19.65-6.8-19.65-19,0-12.48,9.5-20.31,20.4-20.31C785.23,269.79,794.36,276.87,794.36,289Zm-19.28,16.39c6.43,0,8.29-7.64,8.29-14.81,0-7.82-2.7-17-9.59-17-4.75,0-8.48,4.84-8.48,15.18C765.3,297.17,768.38,305.37,775.08,305.37Z"></path><path d="M805.53,283c0-4.19,0-5.31-2.33-6.71l-1.11-.65a2.49,2.49,0,0,1,.09-2.14,65.67,65.67,0,0,0,11.73-5,1.33,1.33,0,0,1,1.31.84c-.1,1.77-.19,3.35-.19,4.19,0,.65.37,1.12.93,1.12,2.89-2.05,6-4.85,9.13-4.85s5.12,2.15,5.12,4.57a5.13,5.13,0,0,1-5.22,5.4,4.63,4.63,0,0,1-2.51-.75,8.48,8.48,0,0,0-4.47-1.77c-2.14,0-2.7,2.15-2.7,6.71v12.76c0,6.89.37,7.91,3.63,8.29l3.63.37c.65.65.56,2.33-.18,2.7-5.59-.19-8.76-.28-12.2-.28-3.08,0-6.15.09-9.69.28-.74-.37-.84-2.05-.18-2.7l1.67-.28c3.17-.56,3.54-1.49,3.54-8.38Z"></path><path d="M863.64,260.3c0-8.48-.09-10-4-10.43l-3.26-.38c-.66-.65-.66-2.23.09-2.6a169.93,169.93,0,0,1,20.58-.84c8.85,0,15.27,1.3,19.46,3.72a15.85,15.85,0,0,1,7.92,14c0,14.16-13.5,18.07-20.86,18.07a17.48,17.48,0,0,1-2.33-.1,1.84,1.84,0,0,1-.28-2.32c8.48-1.68,11.55-7.83,11.55-15.46s-4.84-14.16-13.32-14.16c-4.65,0-4.75.28-4.75,3.91v40.7c0,9.87.84,10.15,5.22,10.62l3.44.37c.56.65.47,2.33-.18,2.7-5.5-.19-9.69-.28-13.79-.28s-8.28.09-12,.28c-.74-.37-.84-2.05-.19-2.7l1.49-.19c4.38-.56,5.22-.93,5.22-10.8Z"></path><path d="M935.35,296c-.28,5.4,1.11,8.2,4.47,8.2,1.58,0,2.88-1,3.16-1,.47,0,1.12,1,.84,1.87-1.86,2.6-6.43,4.09-9.31,4.09a8.92,8.92,0,0,1-6.71-2.6c-.65-.66-1-1.12-1.49-1.12s-1.11.46-2.51,1.3a15,15,0,0,1-7.92,2.42c-6.33,0-9.5-4.37-9.5-9,0-3.35,1.31-6.43,7.73-8.66,3.26-1.12,6.8-2.42,10.25-3.73,1.86-.65,2.14-1.49,2.14-2.42l.09-2.42c.19-4.75-1.12-8.85-5.68-8.85a4.56,4.56,0,0,0-4.93,4.1,4,4,0,0,1-1.77,3.35,12.81,12.81,0,0,1-6,1.68c-1.21,0-1.77-.65-1.77-1.49,0-1.12.56-3.07,3.63-6,2.89-2.7,9.59-5.87,14.34-5.87,7.36,0,11.92,3.45,11.55,11.64Zm-9.13-3.16c0-1-.28-1.59-.75-1.59a15.24,15.24,0,0,0-4.09,1.12c-2.61.93-5,2.24-5,6.24a5.22,5.22,0,0,0,5.21,5.4c3.36,0,4.38-2.23,4.47-4.47Z"></path><path d="M961.89,275.2c-1.68,0-1.77.18-1.77,3.16V292.7c0,5.87.83,11.08,6.79,11.08a7.16,7.16,0,0,0,4.47-1.67A1.46,1.46,0,0,1,972.6,304c-1.87,2.61-6.15,5.12-11.83,5.12-8.85,0-10.43-5.12-10.43-11.64v-18.9c0-3.26-.19-3.35-1.68-3.35H945.4a1.55,1.55,0,0,1-.28-2.52,29.93,29.93,0,0,0,7.36-3.91A17.34,17.34,0,0,0,957.6,263a2,2,0,0,1,2.61.46v5.59c0,1.49,0,1.77,1.77,1.77h9.22c.56.28.74,1,.74,1.95a2.94,2.94,0,0,1-1.21,2.43Z"></path><path d="M989.36,272.68c0,1.12.18,1.58.84,1.58,3.25-2.42,7.26-4.47,11.92-4.47,8,0,11.92,5.13,11.92,13v13.88c0,6.89.37,8,3.53,8.38l2.15.28a1.71,1.71,0,0,1-.19,2.7c-3.91-.19-7.08-.28-10.52-.28-3.08,0-6.24.09-9.5.28-.75-.37-.84-2.05-.19-2.7l1.4-.19c3.16-.46,3.54-1.58,3.54-8.47V283.58c0-4.47-2-8.2-7.45-8.2a8.56,8.56,0,0,0-6.33,2.7c-1,1.12-1.12,2.52-1.12,6.15v12.48c0,6.89.37,8,3.54,8.47l1.39.19c.66.65.56,2.33-.18,2.7-3.26-.19-6.43-.28-9.87-.28-3,0-6.15.09-10.06.28-.75-.37-.84-2.05-.19-2.7l2-.28c3.17-.47,3.54-1.49,3.54-8.38V256.76c0-6.24-.19-6.8-2.14-8.1l-1.31-.84c-.55-.38-.65-1.87,0-2.14,3.64-1,8.39-3,12.2-4.48a1.26,1.26,0,0,1,1.31.75c-.19,3.73-.28,9.5-.28,13.5Z"></path><path d="M1064,289c0,13.22-9.31,20.11-20.4,20.11-10.7,0-19.64-6.8-19.64-19,0-12.48,9.49-20.31,20.39-20.31C1054.82,269.79,1064,276.87,1064,289Zm-19.28,16.39c6.43,0,8.29-7.64,8.29-14.81,0-7.82-2.7-17-9.59-17-4.75,0-8.48,4.84-8.48,15.18C1034.89,297.17,1038,305.37,1044.67,305.37Z"></path><path d="M1074.1,256.76c0-6.24-.09-6.8-2.42-8.29l-1-.65c-.56-.38-.65-1.87,0-2.14,3.64-1,8.48-3,12.2-4.48a1.26,1.26,0,0,1,1.31.75c-.19,3.73-.28,9.5-.28,13.5v41.26c0,6.89.37,7.91,3.53,8.38l2,.28c.66.65.56,2.33-.18,2.7-3.82-.19-7-.28-10.43-.28-3.07,0-6.24.09-10.06.28-.74-.37-.84-2.05-.19-2.7l2-.28c3.17-.47,3.54-1.49,3.54-8.38Z"></path><path d="M1133.79,289c0,13.22-9.31,20.11-20.39,20.11-10.71,0-19.65-6.8-19.65-19,0-12.48,9.5-20.31,20.39-20.31C1124.66,269.79,1133.79,276.87,1133.79,289Zm-19.28,16.39c6.43,0,8.29-7.64,8.29-14.81,0-7.82-2.7-17-9.59-17-4.75,0-8.47,4.84-8.47,15.18C1104.74,297.17,1107.81,305.37,1114.51,305.37Z"></path><path d="M1172.81,278a12.85,12.85,0,0,1,.46,4c0,7.83-5.21,15.37-17,15.37a25.06,25.06,0,0,1-3.54-.37c-1.49.74-2.88,1.95-2.88,3.63,0,1.86,1.3,3.63,5.12,3.63,2.7,0,6.24-.19,10.24-.19,6.71,0,15.18,1.12,15.18,11.27,0,4.84-3.35,9.41-5.86,11.36a27.91,27.91,0,0,1-18.07,6.15c-13.13,0-17.42-6.15-17.42-11a5.71,5.71,0,0,1,1.31-4c.84-.94,4.38-3,5.77-4.19.75-.56,1.4-1.77.56-2.05-3.26-1.12-6.15-4.1-6.15-7.73a2.53,2.53,0,0,1,1.49-2.33c1.4-.75,6-3.63,6-4.94,0-.28,0-.83-.37-1a11.73,11.73,0,0,1-6.89-11.08c0-8.38,7-14.72,17-14.72a21.35,21.35,0,0,1,9.41,2c1.95.93,3,1.4,4.1,1.4h9.12a2.2,2.2,0,0,1,.75,1.67c0,1.87-.75,3-1.49,3.17Zm-15.65,34.36c-3.26,0-5.21.28-6.33,1.12a6.43,6.43,0,0,0-2.79,5.21c0,5.69,5,9.41,12.2,9.41,7.91,0,12.38-3.26,12.38-8.66,0-4.75-4.37-7.08-10.15-7.08Zm.75-18.53c3.54,0,6.15-3.07,6.15-9.59,0-6.33-2.71-10.9-6.9-10.9-3.26,0-6.14,3.08-6.14,9.5C1151,290,1154.37,293.82,1157.91,293.82Z"></path><path d="M1183.7,326c0-3.07,2.14-4.1,4.75-4.19l2-.09a5.23,5.23,0,0,0,3.91-1.87c2-2.79,4.56-7.72,4.56-11.64a17.8,17.8,0,0,0-1.58-6.89l-7.54-19.55c-2.24-5.78-2.89-7.17-6.43-7.92l-1.86-.37c-.74-.75-.74-2.33.28-2.7,3.07.18,6.89.28,10.34.28,3.26,0,6.7-.1,9.87-.28.74.37.84,2.05.18,2.7l-2.79.56c-2.14.46-2.24.84-.65,4.93l4.1,10.71c1.77,4.75,2.88,7,3.16,7.08.37-.09,1.77-3.07,3-5.77l2.8-6.24a54.91,54.91,0,0,0,3.35-9c0-.83-.37-1.3-1.77-1.58l-3.17-.65a2,2,0,0,1,.19-2.7c3.35.18,6.8.28,8.85.28,2.42,0,4.93-.1,7.45-.28.93.28.93,2.05.27,2.7-1.11.28-4,.74-5.3,2.05-1,1-2.8,3.63-5.68,9.4l-4.75,9.5c-3.17,6.33-11.46,22.91-15.37,31.48-1.58,3.54-4,5-7.08,5C1185.29,331,1183.7,328.74,1183.7,326Z"></path><path class="cls-1" d="M153.11,362.65A17.29,17.29,0,0,1,143,370.31a166.76,166.76,0,0,1-32.54-19.55h0c-1.34-11.37,7.59-22.5,18.71-24.5,13.14-2.37,24.42,10.35,26.18,23.13A20.91,20.91,0,0,1,153.11,362.65Z"></path><path class="cls-1" d="M239.11,137.69a18.88,18.88,0,0,1-3.25,5.42c-6.79,7.95-18.61,9.17-27.83,5.08-6.85-3-13.26-10.17-12.81-18.06a20.19,20.19,0,0,1,5.17-11.9c7.06-8.18,19.9-12.57,29.32-7.82A164.17,164.17,0,0,0,239.11,137.69Z"></path><path class="cls-1" d="M202.64,302.21a17.72,17.72,0,0,1-3.17.89c-10.11,1.93-25.81-3.67-26.88-15.48-.61-6.76,1.39-14.38,6.31-18.85,6.74-6.13,16.22-8.06,24.4-3.17,7.37,4.41,12.94,13.66,10.45,22.39C211.9,294.52,208.78,299.86,202.64,302.21Z"></path><path class="cls-1" d="M82.28,195.37a18.64,18.64,0,0,1-1.86,2.77c-6.55,8.17-22.87,14.48-32.16,6.39a26.64,26.64,0,0,1-2.84-2.88,167,167,0,0,1,6.44-32.59,21.19,21.19,0,0,1,4.73-1.43c8.94-1.63,19.92,1.55,24.22,9.7C84,183.45,85.41,189.5,82.28,195.37Z"></path><path class="cls-1" d="M151.14,217.38c-9.42-2.19-17.91-8.68-20.19-18-1.37-5.63.66-11.78,4.55-16.18s9.46-7.16,15.23-8.51a21.06,21.06,0,0,1,9.88-.28c12.73,3.21,17,20.79,15.59,32a11.82,11.82,0,0,1-7.13,9.49A27.87,27.87,0,0,1,151.14,217.38Z"></path><path class="cls-1" d="M104.28,248.33c12.12,6.17,13.64,22,3.78,32-6.74,6.8-17.25,10.18-26.43,6.62-15.94-6.18-19.07-31.76-2.57-39.21,6.13-2.78,15.32-2.76,21.65-.83A22.72,22.72,0,0,1,104.28,248.33Z"></path><path class="cls-1" d="M253.81,228.29a21.57,21.57,0,0,1-7.52-1.36c-16-6-19.45-31.62-3-39.26a24.51,24.51,0,0,1,2.73-1,34.23,34.23,0,0,1,11.64-1.21c.58,0,1.16.07,1.72.13a18.14,18.14,0,0,1,11.85,6,25.68,25.68,0,0,1,4.79,9.46S258.88,220,253.81,228.29Z"></path><path class="cls-1" d="M230.68,374.93a24.1,24.1,0,0,0-5.12,9.68,1,1,0,0,1,0,.17q-6.68.53-13.31.53c-3.9,0-7.75-.14-11.58-.39-4.77-11,.62-28.89,13.35-32,3.31-.81,8.1,0,11.91,1.19C225.89,354.12,227.58,363.22,230.68,374.93Z"></path><path class="cls-1" d="M117.88,134.62a22.25,22.25,0,0,1-14.49-1.16c-14.11-5.68-13.87-23.88-2.73-32.6,5.34-4.17,12.2-6,19-6.41,6.12-.37,11.49.92,15.78,5.48,3.55,3.78,4.85,9,5.18,14.24.74,11.68-12.76,17.45-21.75,20.18Z"></path><path class="cls-1" d="M206.28,57.81c-2.85,8.63-10.91,16.75-20.14,16.62-6.9-.1-12.87-1.79-16.51-7.35a17.07,17.07,0,0,1-1.56-3,24.5,24.5,0,0,1-1.73-7.57,166.09,166.09,0,0,1,41-6.32A21.13,21.13,0,0,1,206.28,57.81Z"></path><path class="cls-2" d="M58.32,240.66a39,39,0,0,0-10,12,166.37,166.37,0,0,0,22.2,54.46,40.46,40.46,0,0,0,15.54.7c14.53-1.81,36.39-10.12,47.74-23.82,4.5-5.41,8.68-20.33,3.39-32.61C125.46,224.06,80.84,222.9,58.32,240.66Zm49.74,39.66c-6.74,6.8-17.25,10.18-26.43,6.63-15.94-6.19-19.07-31.77-2.57-39.22,6.13-2.78,15.32-2.75,21.64-.83a21.55,21.55,0,0,1,3.58,1.43C116.41,254.51,117.93,270.36,108.06,280.32Z"></path><path class="cls-2" d="M143,370.31a163.37,163.37,0,0,0,19.89,7.57c8.65-7.9,15.69-18.6,14.81-29.26-1-12.32-7.86-26.56-17.95-36.24-7.28-7-16.25-11.61-25.94-11.39-17.4.36-36.84,11.86-40.83,29.73a22.66,22.66,0,0,0-.52,4.09,169.45,169.45,0,0,0,18,15.95c-1.34-11.37,7.59-22.5,18.71-24.5,13.14-2.37,24.42,10.35,26.18,23.13a20.91,20.91,0,0,1-2.19,13.26A17.29,17.29,0,0,1,143,370.31Z"></path><path class="cls-2" d="M179.45,238.08c18.31-8,22.49-30.1,16.58-47.62-3.72-11.07-11.53-21.79-19.9-29.85a38.06,38.06,0,0,0-34-9.72,40.44,40.44,0,0,0-27.83,20.31c-5.34,10.12-5,21.24-1.41,31.56,4,11.5,12.42,23.35,21,30.32C146.7,243.55,164.2,244.75,179.45,238.08Zm-28.31-20.69c-9.42-2.2-17.9-8.7-20.18-18-1.39-5.63.65-11.78,4.54-16.19s9.47-7.15,15.23-8.5a21.19,21.19,0,0,1,9.88-.28c12.74,3.22,17,20.79,15.58,32a11.79,11.79,0,0,1-7.13,9.49A27.84,27.84,0,0,1,151.14,217.39Z"></path><path class="cls-2" d="M224.27,252.82a47.61,47.61,0,0,0-12.72-5.24c-9.84-2.58-24-5-33.93-1.84-9.64,3.1-16.74,10.29-21.19,19-8.73,17.19.6,36.44,14.45,48,11.14,9.32,30.62,18.1,45.64,13.48a26.32,26.32,0,0,0,7.11-3.45,157.19,157.19,0,0,1,4.14-33.56,187.68,187.68,0,0,1,7.79-25.43A33.5,33.5,0,0,0,224.27,252.82ZM213.76,288c-1.86,6.54-5,11.88-11.12,14.24a19.85,19.85,0,0,1-3.17.89c-10.11,1.91-25.81-3.68-26.88-15.49-.62-6.77,1.39-14.38,6.31-18.86,6.74-6.13,16.22-8,24.4-3.16C210.67,270,216.24,279.26,213.76,288Z"></path><path class="cls-2" d="M234.15,168.06a68.1,68.1,0,0,0,16.66-8.87l0,0-11.66-21.44v0a19.21,19.21,0,0,1-3.25,5.43c-6.79,7.95-18.61,9.17-27.83,5.08-6.85-3-13.26-10.17-12.81-18.06a20.19,20.19,0,0,1,5.17-11.9c7.06-8.18,19.93-12.57,29.35-7.8a178,178,0,0,1-4-21.42h0c-14.26-1.49-25.81,1.9-37.64,9.87-10.53,7.09-20.35,17.84-20,31.33.46,19.21,21.25,37.58,39.34,40.18C216.46,171.7,225.8,171.27,234.15,168.06Z"></path><path class="cls-2" d="M80.42,198.14c-6.55,8.17-22.87,14.48-32.16,6.39a26.64,26.64,0,0,1-2.84-2.88q-.77,7.93-.77,16.09c0,3.62.12,7.22.34,10.79A39.88,39.88,0,0,0,56.6,230c14-.33,34.94-10.36,42.51-23.14,9-15.2-.7-37.39-12.57-48.07a37.65,37.65,0,0,0-27-10,164.86,164.86,0,0,0-7.66,20.3,21.19,21.19,0,0,1,4.73-1.43c8.94-1.63,19.92,1.55,24.22,9.7,3.22,6.12,4.6,12.17,1.47,18A18.64,18.64,0,0,1,80.42,198.14Z"></path><path class="cls-2" d="M207.34,50.24a21.13,21.13,0,0,1-1.06,7.57c-2.85,8.63-10.91,16.75-20.14,16.62-6.9-.1-12.87-1.79-16.51-7.35a17.07,17.07,0,0,1-1.56-3,24.5,24.5,0,0,1-1.73-7.57,166.76,166.76,0,0,0-21.73,7.86,31.08,31.08,0,0,0,6.62,12.07c11.82,13.12,34,16,49.12,10.68,11.77-4.16,19.36-11.68,22.87-22,.41-1.25.78-2.55,1.08-3.88,0-1.7.08-3.4.16-5.1a22.81,22.81,0,0,1-3.7-4.84c-.17-.31-.35-.63-.51-.94-2.68-.13-5.38-.2-8-.2C210.57,50.17,209,50.2,207.34,50.24Z"></path><path class="cls-2" d="M220.75,240.12c6.93,6.15,13.65,9.25,20.55,10.3a180.55,180.55,0,0,1,12.51-22.13,21.57,21.57,0,0,1-7.52-1.36c-16-6-19.45-31.62-3-39.26,4.61-2.14,10-2.59,15-2.21a18.26,18.26,0,0,1,12.91,6.14c2.47,2.9,3.64,5.93,4.77,9.47,1.29-1.28,4.66-4.63,6-5.84a208.47,208.47,0,0,1-21.56-22.95c-.3-.35-.58-.7-.87-1.07a48.15,48.15,0,0,0-12.44-.19c-14.82,1.65-30.11,11-37.33,24.21C201.53,210.37,208.51,229.25,220.75,240.12Z"></path><path class="cls-2" d="M214,352.93c3.31-.81,8.1,0,11.91,1.19a181.87,181.87,0,0,1-2.17-22.44c-13.27-.53-27.15,6.51-33.87,17.6-7.78,12.83-11,23.13-11.45,32.6a169.14,169.14,0,0,0,22.23,3C195.86,373.88,201.25,356,214,352.93Z"></path><path class="cls-2" d="M160.87,119.85c2.63-7.37,2.6-16.87-.9-24a.84.84,0,0,1-.11-.21c-6.73-13.36-21-19.71-35.64-20.41a169,169,0,0,0-52.76,51.73c0,.18.08.34.12.5,1.6,6.39,3.88,12.78,8,17.8C100,170.35,151.66,145.7,160.87,119.85Zm-60.21-19c5.34-4.17,12.2-6,19-6.42,6.12-.36,11.48.93,15.77,5.49,3.55,3.79,4.85,9,5.18,14.25.75,11.67-12.76,17.44-21.75,20.17l-.94.27a22.3,22.3,0,0,1-14.49-1.16C89.29,127.77,89.52,109.58,100.66,100.86Z"></path><path class="cls-2" d="M383.4,149.2a24.37,24.37,0,0,1-7.57,2.55,177.31,177.31,0,0,1,7.34,109.55,24.14,24.14,0,0,1,7.55,2.71A185.32,185.32,0,0,0,383.4,149.2Z"></path><path class="cls-2" d="M212.21,394.12C115,394.12,35.84,315,35.84,217.74S115,41.35,212.21,41.35c1.79,0,3.58,0,5.37.1a24.85,24.85,0,0,1,.56-8c-2-.07-4-.09-5.93-.09-101.65,0-184.35,82.71-184.35,184.36S110.56,402.1,212.21,402.1c5,0,10-.2,14.92-.61a23.13,23.13,0,0,1-2.24-7.81C220.66,394,216.41,394.12,212.21,394.12Z"></path><path class="cls-1" d="M336.12,199l-15.6,17.07,6.48,5.78a217.31,217.31,0,0,1,16.35,16.48h-53.7a288.6,288.6,0,0,1,19.82-23.9l4.06-4.42,16.59-17.67c1.36-1.43,2.7-2.89,4-4.37,10.91-11.84,21.25-24,29.42-37.37a24.45,24.45,0,0,1-12.92-10.79c-.14-.24-.26-.46-.38-.69h-69.8a142.38,142.38,0,0,1-10.55-17.55,190.89,190.89,0,0,1-9.67-22.74H329.5c-3.32-3.24-6.73-6.37-10.26-9.31H257.18c-2.77-9-5.07-18.1-7.12-27.29a24.33,24.33,0,0,1-15.78.09c-.27,30.83,5.82,62.25,22.35,88.83,8.45,14,20.15,26.55,32.16,37.54l19.84-17.53a273,273,0,0,1-21.06-22.73H349.2c-9.14,8.95-18.86,17.07-28.63,25.14-1.69,1.41-3.39,2.8-5.11,4.2l-21.18,18.1c-1.12,1-2.24,2-3.36,3.08-19.08,17.77-36.25,38.45-47.28,68.32-14.09,35.55-14.11,69.08-7.14,102.72.17-.09.33-.21.5-.31a24.41,24.41,0,0,1,16.67-2.89c0-2,0-3.91,0-5.9-.07-4.84,0-9.67.19-14.47h64.85Q324,342,329,337.09H254.38a210.45,210.45,0,0,1,7.21-39.85h95.64a24.35,24.35,0,0,1-2.92-9.32h-89.8a199.45,199.45,0,0,1,8.26-20.58,134.53,134.53,0,0,1,10.48-19.7h68.08q7,8.56,13.37,17.65c.57-.41,1.15-.77,1.77-1.13a24,24,0,0,1,5.06-2.19C365.06,238.21,352.21,217.46,336.12,199Z"></path><path class="cls-2" d="M350.33,339.67a185,185,0,0,0,21.9-30.58,24,24,0,0,1-7.12-3.23,176.63,176.63,0,0,1-20.62,28.65c-2.67,3-5.58,6.1-8.65,9.12a175.26,175.26,0,0,1-60.68,39l-2.47.94a23.6,23.6,0,0,1,1.14,7.87c1.37-.49,2.75-1,4.11-1.51a183.62,183.62,0,0,0,63.36-40.73C344.5,346.05,347.54,342.84,350.33,339.67Z"></path><path class="cls-2" d="M526.12,189.42a17,17,0,0,0-8.68,2.36l-67.82-85.73a17.25,17.25,0,1,0-28.28-18.87L322.83,59.33l-2.55-.71q5.75,3.9,11.22,8.25l2.1.59L420,91.88a15.83,15.83,0,0,0-.16,2.29,17,17,0,0,0,.94,5.61l-28.26,14.45c.23.34.43.67.63,1a26.12,26.12,0,0,1,1.61,3.33L423,104.11a17.23,17.23,0,0,0,14.09,7.32,3.85,3.85,0,0,0,.48,0l13.6,78.85a17.26,17.26,0,0,0-5.5,3l-54.27-50.8c-.27.35-.55.7-.84,1s-.4.45-.63.68a20.32,20.32,0,0,1-1.87,1.84l4.13,3.88,1.39,1.29,48.77,45.64a17.16,17.16,0,0,0,.39,20.29l-41.91,42.46-1.12,1.13-5.57,5.65a21.62,21.62,0,0,1,3.31,3.25,1.25,1.25,0,0,1,.16.17l.93-.94,47.67-48.28a17.06,17.06,0,0,0,5.43,2.7L437.11,325h0a17.17,17.17,0,0,0-10.52,3.6l-28.64-27.9a23.42,23.42,0,0,1-3.41,3.49l28.64,27.91a17.14,17.14,0,0,0-3.31,10.15,17.55,17.55,0,0,0,.11,1.93l-83.84,21.73-1.92.49q-4.8,4-9.82,7.58l2.2-.57,94.6-24.5a17.25,17.25,0,1,0,27.32-19.58L518.8,222.29a16.79,16.79,0,0,0,7.32,1.65,17.26,17.26,0,0,0,0-34.52Zm-85.24-86.54a9.52,9.52,0,0,1-3.77.78,6,6,0,0,1-.86,0,9.49,9.49,0,0,1-8.41-7.43h0a8.82,8.82,0,0,1-.22-2,.66.66,0,0,1,0-.14A9.31,9.31,0,0,1,429,89.34,9.48,9.48,0,1,1,444.7,99.83a9.35,9.35,0,0,1-3.63,3Zm1.53,7.71a15.87,15.87,0,0,0,3.38-1.52l67.83,85.74a17.18,17.18,0,0,0-4.58,9.42H473.57a17.29,17.29,0,0,0-17.08-14.81H456Zm5.91,100.88a9.33,9.33,0,0,1-1.31-4.78,9.45,9.45,0,0,1,4.47-8.05,7.14,7.14,0,0,1,1.06-.57,9.29,9.29,0,0,1,3.95-.87,6,6,0,0,1,.86.05,9.45,9.45,0,0,1,8.29,7,8.75,8.75,0,0,1,.34,2.46,9,9,0,0,1-.33,2.44,9.45,9.45,0,0,1-8,7,8.59,8.59,0,0,1-1.13.08,9.6,9.6,0,0,1-3.71-.75l-1-.5A9.41,9.41,0,0,1,448.32,211.47ZM437.11,351.76a9.49,9.49,0,0,1-8.25-4.82,9.36,9.36,0,0,1-1.24-4.67v-.06a9.39,9.39,0,0,1,4.64-8.06,9.05,9.05,0,0,1,3.72-1.27,7.08,7.08,0,0,1,1.13-.08,9.45,9.45,0,0,1,3,.48c.24.08.48.16.73.27a9.57,9.57,0,0,1,5.76,8.72A9.49,9.49,0,0,1,437.11,351.76Zm7.32-25.09a13.7,13.7,0,0,0-2.5-.95l14.56-101.78h0a17.28,17.28,0,0,0,17.07-14.81H509a17.18,17.18,0,0,0,5.67,10.48Zm81.69-110.51a9.45,9.45,0,0,1-3-.48,9.47,9.47,0,0,1-6.5-9,9.67,9.67,0,0,1,1.89-5.66,9.4,9.4,0,0,1,3.81-3.05,9.48,9.48,0,1,1,3.78,18.18Z"></path><path class="cls-2" d="M336.31,92.3c3,3,5.9,6.07,8.58,9.13q4.33,4.92,8.31,10.2a23.48,23.48,0,0,1,5.93-5.06c-2.66-3.51-5.48-7-8.39-10.28s-5.81-6.4-9-9.53a183.53,183.53,0,0,0-63.7-41.13c-3.82-1.47-7.72-2.81-11.65-4a22.3,22.3,0,0,1-.69,3.77,24.91,24.91,0,0,1-1.34,3.75c3.68,1.13,7.32,2.4,10.89,3.78A175.31,175.31,0,0,1,336.31,92.3Z"></path><path class="cls-2" d="M262.94,377.49a19.19,19.19,0,0,0-23.24-3.13,19,19,0,0,0-8.36,9.86c-.21.58-.4,1.17-.56,1.77a19.08,19.08,0,0,0,1.91,14.55,2.9,2.9,0,0,0,.19.29,18.8,18.8,0,0,0,7.64,7.16c.46.23.93.44,1.42.65a17.85,17.85,0,0,0,2.4.82,19.06,19.06,0,0,0,14.53-1.91,18.92,18.92,0,0,0,4.34-3.44c.35-.38.7-.77,1-1.17a19.09,19.09,0,0,0,4.07-9.65,21,21,0,0,0,.14-2.38,19,19,0,0,0-2.56-9.54A20.07,20.07,0,0,0,262.94,377.49Zm-3,16.32a12,12,0,0,1-.8,2.12,11.12,11.12,0,0,1-4.36,4.61,11,11,0,0,1-8.39,1.1,10.79,10.79,0,0,1-4.13-2.1,10.67,10.67,0,0,1-2.6-3.05,11.09,11.09,0,0,1-1.12-8.41,11.16,11.16,0,0,1,5.16-6.72,11,11,0,0,1,5.53-1.48,11.32,11.32,0,0,1,2.88.37,2.74,2.74,0,0,1,.46.15A11,11,0,0,1,260,393.81Z"></path><path class="cls-2" d="M373.78,303.93c.39.11.78.19,1.16.28a19.18,19.18,0,0,0,3.82.38,18.65,18.65,0,0,0,5.5-.82,18.42,18.42,0,0,0,4.06-1.76,19.16,19.16,0,0,0,7.18-25.86c-.05-.11-.12-.2-.17-.31a19.16,19.16,0,1,0-21.55,28.09Zm-.58-28.09a11,11,0,0,1,5.52-1.48,11.14,11.14,0,0,1,7.81,3.19,11.9,11.9,0,0,1,1.79,2.33,11.08,11.08,0,0,1-9.52,16.62h-.06a10.71,10.71,0,0,1-2.86-.38,11.07,11.07,0,0,1-2.68-20.28Z"></path><path class="cls-2" d="M388.49,117.94a19.13,19.13,0,0,0-18-9.51,18.69,18.69,0,0,0-8.13,2.5,19.15,19.15,0,0,0,9.62,35.74,18.83,18.83,0,0,0,9.26-2.41c.1,0,.19-.1.29-.15a19.09,19.09,0,0,0,6.06-5.51,19.52,19.52,0,0,0,2.87-6.12A19,19,0,0,0,388.49,117.94ZM382.89,129a11.15,11.15,0,0,1-.29,1.37,10.82,10.82,0,0,1-4.81,6.49,1.63,1.63,0,0,1-.35.23,11.07,11.07,0,1,1-11.08-19.16,4,4,0,0,1,.54-.29,10.88,10.88,0,0,1,5-1.2,11.08,11.08,0,0,1,11,12.56Z"></path><path class="cls-2" d="M226.92,50.83a19.25,19.25,0,0,0,15.14,7.36,19,19,0,0,0,9.54-2.56c.31-.18.62-.38.92-.57a19.07,19.07,0,0,0,8-11.08,18.44,18.44,0,0,0,.62-3.89,18.91,18.91,0,0,0-1.62-8.8c-.15-.34-.31-.66-.47-1s-.3-.56-.46-.85a19.17,19.17,0,0,0-26.17-7,17.91,17.91,0,0,0-3.72,2.81c-.27.26-.53.53-.77.8a19.16,19.16,0,0,0-2.52,22.56A20.32,20.32,0,0,0,226.92,50.83Zm5-16.28a10.9,10.9,0,0,1,4.57-5.11,11.08,11.08,0,0,1,15.13,4.06,10.95,10.95,0,0,1,1.11,8.39,11.07,11.07,0,1,1-20.81-7.34Z"></path></g></svg> 